<svg width="269" height="49" viewBox="0 0 269 49" fill="none" xmlns="http://www.w3.org/2000/svg">
<path d="M50.2941 35.2616C49.6857 34.2153 48.8161 33.3451 47.7705 32.7363C46.6904 32.1238 45.4702 31.8019 44.2287 31.8019C42.9873 31.8019 41.767 32.1238 40.6869 32.7363C40.2524 32.991 39.8463 33.2916 39.4756 33.6328C39.1042 33.2921 38.6972 32.9924 38.2618 32.7388C37.1886 32.1286 35.9762 31.8059 34.7419 31.8019C33.5076 31.7979 32.2932 32.1128 31.2161 32.7161C30.139 32.1131 28.9247 31.7982 27.6906 31.8018C26.4564 31.8053 25.244 32.1272 24.1704 32.7363C23.7358 32.991 23.3298 33.2916 22.9591 33.6328C22.587 33.2921 22.1802 32.9916 21.7452 32.7363C20.6651 32.1238 19.4449 31.8019 18.2035 31.8019C16.962 31.8019 15.7418 32.1238 14.6617 32.7363L14.48 32.8524C14.3109 32.7337 14.1393 32.6201 13.9601 32.514C12.8944 31.899 11.6856 31.5754 10.4553 31.5759C9.22504 31.5763 8.01653 31.9008 6.95122 32.5166C5.88591 33.1325 5.00131 34.018 4.38629 35.0843C3.77128 36.1506 3.44751 37.3601 3.44751 38.5913C3.44751 39.8224 3.77128 41.0319 4.38629 42.0982C5.00131 43.1645 5.88591 44.0501 6.95122 44.6659C8.01653 45.2818 9.22504 45.6062 10.4553 45.6067C11.6856 45.6071 12.8944 45.2836 13.9601 44.6685C14.0232 44.6331 14.0813 44.5927 14.1418 44.5549C14.3084 44.6735 14.48 44.7872 14.6617 44.8932C15.7418 45.5057 16.962 45.8276 18.2035 45.8276C19.4449 45.8276 20.6651 45.5057 21.7452 44.8932C22.1802 44.6379 22.587 44.3374 22.9591 43.9968C23.3298 44.3379 23.7358 44.6385 24.1704 44.8932C25.244 45.5024 26.4564 45.8242 27.6906 45.8277C28.9247 45.8313 30.139 45.5164 31.2161 44.9134C32.2932 45.5164 33.5074 45.8313 34.7416 45.8277C35.9758 45.8242 37.1882 45.5024 38.2618 44.8932C38.6973 44.6387 39.1042 44.3382 39.4756 43.9968C39.8463 44.3379 40.2524 44.6385 40.6869 44.8932C41.767 45.5057 42.9873 45.8276 44.2287 45.8276C45.4702 45.8276 46.6904 45.5057 47.7705 44.8932C49.3658 43.9384 50.5235 42.3959 50.9953 40.5967C51.4671 38.7974 51.2153 36.8848 50.2941 35.2692V35.2616Z" fill="#221F20"/>
<path d="M16.552 35.0797C16.4409 34.8928 16.3223 34.7135 16.1987 34.5393C16.2744 34.4231 16.3501 34.307 16.4207 34.1857C17.0327 33.1044 17.3544 31.8829 17.3544 30.6402C17.3544 29.3975 17.0327 28.1759 16.4207 27.0946C16.3501 26.9751 16.2769 26.8589 16.2012 26.7461C16.2769 26.6299 16.3501 26.5138 16.4207 26.3951C17.0327 25.3137 17.3544 24.0922 17.3544 22.8495C17.3544 21.6068 17.0327 20.3853 16.4207 19.3039C16.3501 19.1827 16.2769 19.0665 16.2012 18.9529C16.2769 18.8393 16.3501 18.7231 16.4207 18.6019C17.0327 17.5205 17.3544 16.299 17.3544 15.0563C17.3544 13.8136 17.0327 12.5921 16.4207 11.5107C16.3274 11.3516 16.2264 11.2001 16.123 11.0486C16.2264 10.8996 16.3274 10.7455 16.4207 10.5864C17.0327 9.50511 17.3544 8.28359 17.3544 7.04087C17.3544 5.79816 17.0327 4.57663 16.4207 3.49529C15.8119 2.44933 14.9424 1.57923 13.8972 0.969953C12.831 0.341095 11.6173 0.00643254 10.3797 9.18078e-05C9.14217 -0.00624892 7.92507 0.315959 6.85253 0.93386C5.77999 1.55176 4.89038 2.44325 4.27443 3.51742C3.65847 4.59159 3.33821 5.81001 3.34628 7.04845C3.33408 8.28986 3.65758 9.51147 4.28251 10.5839C4.37672 10.7422 4.47514 10.8962 4.57776 11.0461C4.47346 11.1959 4.37504 11.3499 4.28251 11.5082C3.66886 12.589 3.34623 13.8107 3.34623 15.0538C3.34623 16.2968 3.66886 17.5186 4.28251 18.5994C4.35065 18.7206 4.42635 18.8367 4.50206 18.9504C4.42635 19.064 4.35065 19.1802 4.28251 19.3014C3.66886 20.3822 3.34623 21.6039 3.34623 22.847C3.34623 24.09 3.66886 25.3118 4.28251 26.3926C4.35065 26.5112 4.42635 26.6274 4.50206 26.7436C4.42635 26.8572 4.35065 26.9734 4.28251 27.0921C3.66886 28.1728 3.34623 29.3946 3.34623 30.6376C3.34623 31.8807 3.66886 33.1024 4.28251 34.1832C4.39102 34.3726 4.50963 34.5494 4.63328 34.7236C4.55758 34.8398 4.4844 34.956 4.41374 35.0772C3.80008 36.158 3.47745 37.3797 3.47745 38.6228C3.47745 39.8658 3.80008 41.0876 4.41374 42.1684C5.02157 43.2151 5.89128 44.0854 6.93728 44.6937C8.01784 45.3061 9.2385 45.628 10.4803 45.628C11.7222 45.628 12.9428 45.3061 14.0234 44.6937C15.0697 44.0859 15.9396 43.2155 16.5469 42.1684C17.1589 41.087 17.4806 39.8655 17.4806 38.6228C17.4806 37.3801 17.1589 36.1585 16.5469 35.0772L16.552 35.0797Z" fill="#221F20"/>
<path d="M49.1636 17.819H0V27.8472H49.1636V17.819Z" fill="#221F20"/>
<path d="M20.4912 43.4008V33.9888H9.47596V43.4008H20.4912Z" fill="#221F20"/>
<path d="M50.2943 3.74031C49.6859 2.69399 48.8163 1.82379 47.7707 1.21497C46.6885 0.59931 45.465 0.275615 44.2201 0.275615C42.9752 0.275615 41.7517 0.59931 40.6695 1.21497C40.235 1.46975 39.8289 1.77029 39.4582 2.11147C39.0885 1.77127 38.6842 1.47079 38.2519 1.21497C37.1783 0.605868 35.9659 0.284013 34.7317 0.280474C33.4976 0.276935 32.2833 0.591831 31.2062 1.19477C30.1291 0.591831 28.9149 0.276935 27.6807 0.280474C26.4465 0.284013 25.2341 0.605868 24.1605 1.21497C23.7259 1.46975 23.3199 1.77029 22.9492 2.11147C22.5795 1.77127 22.1752 1.47079 21.7429 1.21497C20.6628 0.602539 19.4426 0.280631 18.2011 0.280631C16.9597 0.280631 15.7395 0.602539 14.6594 1.21497C14.5963 1.25033 14.5382 1.29073 14.4777 1.32861C14.3086 1.20992 14.137 1.09628 13.9578 0.990217C12.8916 0.361359 11.6779 0.0266962 10.4403 0.0203555C9.20278 0.0140148 7.98568 0.336222 6.91314 0.954123C5.8406 1.57202 4.95099 2.46351 4.33504 3.53768C3.71909 4.61185 3.39881 5.83028 3.40689 7.06871C3.41348 8.30144 3.74293 9.51089 4.36238 10.5764C4.98183 11.642 5.86962 12.5264 6.93721 13.1415C8.0048 13.7565 9.21488 14.0807 10.4467 14.0817C11.6786 14.0827 12.8892 13.7605 13.9578 13.1472L14.1395 13.0336C14.3061 13.1497 14.4777 13.2659 14.6594 13.372C15.7395 13.9844 16.9597 14.3063 18.2011 14.3063C19.4426 14.3063 20.6628 13.9844 21.7429 13.372C22.1779 13.1166 22.5847 12.8161 22.9568 12.4755C23.3274 12.8166 23.7335 13.1172 24.1681 13.372C25.2417 13.9811 26.4541 14.3029 27.6883 14.3065C28.9224 14.31 30.1367 13.9951 31.2138 13.3922C32.2909 13.9951 33.5051 14.31 34.7393 14.3065C35.9735 14.3029 37.1859 13.9811 38.2595 13.372C38.6944 13.1166 39.1013 12.8161 39.4733 12.4755C39.844 12.8166 40.2501 13.1172 40.6846 13.372C41.7647 13.9844 42.985 14.3063 44.2264 14.3063C45.4679 14.3063 46.6881 13.9844 47.7682 13.372C48.8141 12.7636 49.6838 11.8933 50.2918 10.8466C50.9021 9.76519 51.2228 8.54429 51.2228 7.3023C51.2228 6.06032 50.9021 4.83942 50.2918 3.75799L50.2943 3.74031Z" fill="#221F20"/>
<path d="M14.9824 8.0434H5.57715V39.7945H14.9824V8.0434Z" fill="#221F20"/>
<path d="M69.7633 22.2332C69.7774 20.9453 69.4435 19.6775 68.7968 18.5639C68.7236 18.4402 68.6453 18.3114 68.5671 18.2028C68.6453 18.0841 68.7236 17.9503 68.7968 17.8391C69.4279 16.7221 69.7596 15.4607 69.7596 14.1774C69.7596 12.8942 69.4279 11.6327 68.7968 10.5157C68.1661 9.42957 67.2632 8.52692 66.1773 7.89688C65.0601 7.2613 63.797 6.92712 62.5119 6.92712C61.2267 6.92712 59.9637 7.2613 58.8464 7.89688C57.1929 8.88131 55.9919 10.4762 55.5019 12.3381C55.012 14.2001 55.2724 16.1801 56.227 17.8518C56.301 17.9747 56.3767 18.0959 56.4541 18.2154C56.3759 18.3341 56.3002 18.4528 56.227 18.5765C55.5936 19.6956 55.2606 20.9598 55.2606 22.2459C55.2606 23.532 55.5936 24.7961 56.227 25.9152C56.3002 26.0389 56.3759 26.1677 56.4541 26.2763C56.3767 26.3942 56.301 26.5154 56.227 26.64C55.5935 27.7585 55.2606 29.0223 55.2606 30.308C55.2606 31.5937 55.5935 32.8575 56.227 33.9761C56.8572 35.0573 57.7572 35.9562 58.8389 36.5847C59.9566 37.2187 61.2195 37.5519 62.5043 37.5519C63.7891 37.5519 65.052 37.2187 66.1698 36.5847C67.2553 35.9531 68.158 35.0497 68.7892 33.9634C69.4226 32.8449 69.7556 31.5811 69.7556 30.2954C69.7556 29.0097 69.4226 27.7459 68.7892 26.6273C68.716 26.5036 68.6378 26.3748 68.5595 26.2637C68.6378 26.145 68.716 26.0263 68.7892 25.9026C69.4389 24.7899 69.7755 23.5219 69.7633 22.2332Z" fill="#221F20"/>
<path d="M93.4822 22.2334C93.4963 20.9455 93.1624 19.6777 92.5157 18.5641C92.4425 18.4403 92.3668 18.3115 92.2886 18.203C92.3676 18.0851 92.4433 17.9639 92.5157 17.8393C93.1501 16.7362 93.4835 15.4855 93.4822 14.2128C93.4809 12.94 93.1451 11.69 92.5084 10.5882C91.8718 9.48638 90.9567 8.57155 89.855 7.93554C88.7534 7.29953 87.5039 6.96472 86.2321 6.96472C84.9602 6.96472 83.7107 7.29953 82.6091 7.93554C81.5074 8.57155 80.5923 9.48638 79.9557 10.5882C79.319 11.69 78.9832 12.94 78.9819 14.2128C78.9807 15.4855 79.314 16.7362 79.9484 17.8393C80.0225 17.9622 80.0982 18.0834 80.1756 18.203C80.0973 18.3217 80.0216 18.4403 79.9484 18.5641C79.315 19.6831 78.9821 20.9473 78.9821 22.2334C78.9821 23.5195 79.315 24.7837 79.9484 25.9027C80.0216 26.0265 80.0973 26.1553 80.1756 26.2638C80.0982 26.3817 80.0225 26.5029 79.9484 26.6275C79.315 27.7461 78.982 29.0098 78.982 30.2955C78.982 31.5813 79.315 32.845 79.9484 33.9636C80.5766 35.0497 81.4769 35.9531 82.5603 36.5849C83.6781 37.2188 84.941 37.552 86.2258 37.552C87.5106 37.552 88.7734 37.2188 89.8912 36.5849C90.9772 35.9539 91.8801 35.0504 92.5106 33.9636C93.1441 32.845 93.4771 31.5813 93.4771 30.2955C93.4771 29.0098 93.1441 27.7461 92.5106 26.6275C92.4366 26.5029 92.3609 26.3817 92.2835 26.2638C92.3618 26.1452 92.4375 26.0265 92.5106 25.9027C93.1594 24.7898 93.4952 23.5218 93.4822 22.2334Z" fill="#221F20"/>
<path d="M86.2295 0.487671H62.5107V11.0966H86.2295V0.487671Z" fill="#221F20"/>
<path d="M86.2295 34.7792H62.5107V45.3881H86.2295V34.7792Z" fill="#221F20"/>
<path d="M178.525 27.1375C177.912 26.081 177.035 25.2028 175.979 24.5895C175.792 24.4809 175.603 24.3824 175.409 24.2915V16.7155H148.215C148.215 16.5841 148.215 16.4629 148.215 16.319C148.217 15.699 148.141 15.0813 147.988 14.4805C149.048 14.4125 150.078 14.0978 150.996 13.5613C151.117 13.4906 151.233 13.4148 151.349 13.3391C151.463 13.4148 151.579 13.4906 151.7 13.5613C152.787 14.177 154.015 14.5006 155.265 14.5006C156.514 14.5006 157.742 14.177 158.829 13.5613C158.95 13.4906 159.066 13.4148 159.182 13.3391C159.296 13.4148 159.415 13.4906 159.533 13.5613C160.62 14.177 161.848 14.5006 163.098 14.5006C164.347 14.5006 165.575 14.177 166.662 13.5613C167.115 13.2984 167.538 12.9868 167.924 12.632C168.967 13.497 170.238 14.0429 171.583 14.2044C172.928 14.366 174.292 14.1364 175.51 13.543C176.728 12.9497 177.75 12.0177 178.453 10.8586C179.156 9.69948 179.511 8.36225 179.474 7.00683C179.438 5.6514 179.012 4.33515 178.248 3.21548C177.484 2.0958 176.413 1.22009 175.165 0.693063C173.917 0.166037 172.543 0.0100026 171.208 0.243618C169.873 0.477234 168.634 1.09061 167.639 2.0104C167.337 1.75762 167.014 1.53039 166.675 1.33109C165.588 0.715383 164.36 0.391789 163.11 0.391789C161.861 0.391789 160.633 0.715383 159.546 1.33109C159.427 1.4018 159.309 1.47756 159.195 1.55332C159.079 1.47756 158.963 1.4018 158.842 1.33109C157.754 0.715383 156.526 0.391789 155.277 0.391789C154.028 0.391789 152.8 0.715383 151.713 1.33109C151.592 1.4018 151.476 1.47756 151.362 1.55332C151.246 1.47756 151.13 1.4018 151.009 1.33109C149.921 0.715383 148.693 0.391789 147.444 0.391789C146.195 0.391789 144.967 0.715383 143.88 1.33109C142.824 1.94512 141.947 2.82322 141.333 3.87916C140.705 4.96119 140.38 6.19334 140.395 7.44494C140.392 8.06575 140.468 8.68437 140.622 9.28591C139.561 9.35337 138.531 9.66816 137.614 10.2051C136.265 10.9826 135.211 12.1848 134.617 13.6243C134.022 15.0638 133.921 16.6597 134.327 18.1631C134.734 19.6666 135.627 20.9931 136.866 21.9358C138.105 22.8785 139.621 23.3845 141.177 23.3748C141.662 23.3762 142.146 23.3305 142.623 23.2384V27.7057H166.011C165.578 28.645 165.358 29.6688 165.368 30.7033C165.367 30.9809 165.383 31.2583 165.413 31.5342C165.138 31.5036 164.862 31.4885 164.585 31.4887C163.334 31.474 162.102 31.7986 161.02 32.4281C160.898 32.4988 160.782 32.5746 160.669 32.6504C160.553 32.5746 160.437 32.4988 160.315 32.4281C159.228 31.8124 158 31.4888 156.751 31.4888C155.502 31.4888 154.274 31.8124 153.186 32.4281C153.065 32.4988 152.949 32.5746 152.833 32.6504C152.72 32.5746 152.604 32.4988 152.482 32.4281C151.395 31.8124 150.167 31.4888 148.918 31.4888C147.669 31.4888 146.441 31.8124 145.353 32.4281C145.222 32.5064 145.101 32.5872 144.967 32.6807C143.878 32.0564 142.642 31.7345 141.387 31.7483C140.132 31.7621 138.903 32.111 137.828 32.759C136.753 33.407 135.87 34.3306 135.271 35.4343C134.672 36.538 134.378 37.7818 134.42 39.0372C134.462 40.2925 134.838 41.5139 135.51 42.575C136.181 43.6362 137.124 44.4986 138.24 45.0732C139.356 45.6478 140.605 45.9137 141.859 45.8434C143.112 45.7731 144.324 45.3693 145.369 44.6735C146.454 45.2869 147.679 45.6093 148.925 45.6093C150.172 45.6093 151.397 45.2869 152.482 44.6735C152.604 44.6028 152.72 44.527 152.833 44.4513C152.949 44.527 153.065 44.6028 153.186 44.6735C154.274 45.2892 155.502 45.6128 156.751 45.6128C158 45.6128 159.228 45.2892 160.315 44.6735C160.437 44.6028 160.553 44.527 160.669 44.4513C160.782 44.527 160.898 44.6028 161.02 44.6735C162.107 45.2892 163.335 45.6128 164.584 45.6128C165.833 45.6128 167.061 45.2892 168.149 44.6735C169.204 44.0602 170.082 43.1819 170.695 42.1254C171.329 41.0397 171.656 39.8019 171.641 38.5445C171.641 38.2678 171.627 37.9914 171.598 37.7162C171.873 37.7447 172.149 37.759 172.426 37.7591C173.673 37.7725 174.901 37.4488 175.979 36.8222C177.035 36.2089 177.912 35.3307 178.525 34.2742C179.142 33.1867 179.467 31.9576 179.467 30.7071C179.467 29.4566 179.142 28.2275 178.525 27.1401V27.1375Z" fill="#221F20"/>
<path d="M71.7593 24.0516C71.7747 22.7643 71.4407 21.497 70.7928 20.3848C70.7187 20.2603 70.643 20.139 70.5657 20.0212C70.6439 19.9025 70.7196 19.7838 70.7928 19.6601C71.4262 18.5415 71.7592 17.2777 71.7592 15.992C71.7592 14.7063 71.4262 13.4425 70.7928 12.3239C69.7916 10.7181 68.205 9.56558 66.3691 9.1106C64.5332 8.65562 62.5924 8.93398 60.9581 9.88668C59.3238 10.8394 58.1245 12.3915 57.6144 14.2141C57.1043 16.0367 57.3235 17.9864 58.2255 19.65C58.2987 19.7737 58.3744 19.9025 58.4527 20.0111C58.3736 20.1306 58.2979 20.2518 58.2255 20.3747C57.5921 21.4933 57.2591 22.7571 57.2591 24.0428C57.2591 25.3285 57.5921 26.5923 58.2255 27.7108C58.2996 27.8337 58.3753 27.955 58.4527 28.0745C58.3744 28.1932 58.2987 28.3119 58.2255 28.4356C57.5911 29.5387 57.2578 30.7894 57.259 32.0621C57.2603 33.3349 57.5961 34.5849 58.2328 35.6867C58.8694 36.7885 59.7845 37.7034 60.8862 38.3394C61.9878 38.9754 63.2373 39.3102 64.5092 39.3102C65.781 39.3102 67.0305 38.9754 68.1321 38.3394C69.2338 37.7034 70.1489 36.7885 70.7855 35.6867C71.4222 34.5849 71.758 33.3349 71.7593 32.0621C71.7606 30.7894 71.4272 29.5387 70.7928 28.4356C70.7196 28.3119 70.6439 28.1831 70.5657 28.0745C70.643 27.955 70.7187 27.8337 70.7928 27.7108C71.4395 26.6009 71.7735 25.3364 71.7593 24.0516Z" fill="white" stroke="#221F20" stroke-width="1.23144" stroke-miterlimit="10"/>
<path d="M95.4806 24.0516C95.4948 22.7644 95.1608 21.4974 94.5141 20.3848C94.4409 20.261 94.3652 20.1322 94.2845 20.0211C94.3652 19.9024 94.4409 19.7837 94.5141 19.66C95.1476 18.5414 95.4805 17.2777 95.4805 15.9919C95.4805 14.7062 95.1476 13.4425 94.5141 12.3239C93.8842 11.2374 92.9823 10.3339 91.8972 9.70258C90.5091 8.90802 88.8985 8.59218 87.3135 8.80373C85.7284 9.01527 84.2568 9.74246 83.1253 10.8733C81.9939 12.0041 81.2654 13.4758 81.0519 15.0618C80.8385 16.6477 81.1521 18.2598 81.9443 19.6499C82.0175 19.7736 82.0958 19.9024 82.174 20.011C82.0958 20.1297 82.0175 20.2509 81.9443 20.3747C81.3109 21.4932 80.9779 22.757 80.9779 24.0427C80.9779 25.3284 81.3109 26.5922 81.9443 27.7108C82.0175 27.8345 82.0958 27.9633 82.174 28.0744C82.0958 28.1931 82.0175 28.3118 81.9443 28.4356C81.3093 29.539 80.9755 30.7902 80.9766 32.0636C80.9776 33.3369 81.3134 34.5876 81.9502 35.69C82.587 36.7924 83.5024 37.7078 84.6046 38.3441C85.7067 38.9805 86.9568 39.3155 88.2292 39.3155C89.5017 39.3155 90.7517 38.9805 91.8539 38.3441C92.956 37.7078 93.8714 36.7924 94.5083 35.69C95.1451 34.5876 95.4809 33.3369 95.4819 32.0636C95.4829 30.7902 95.1491 29.539 94.5141 28.4356C94.4409 28.3118 94.3652 28.183 94.2845 28.0744C94.3652 27.9557 94.4409 27.8219 94.5141 27.7108C95.1597 26.6004 95.4937 25.3362 95.4806 24.0516Z" fill="white" stroke="#221F20" stroke-width="1.23144" stroke-miterlimit="10"/>
<path d="M88.228 2.30585H64.5093V12.9148H88.228V2.30585Z" fill="white" stroke="#221F20" stroke-width="1.23144" stroke-miterlimit="10"/>
<path d="M88.228 36.5999H64.5093V47.2089H88.228V36.5999Z" fill="white" stroke="#221F20" stroke-width="1.23144" stroke-miterlimit="10"/>
<path d="M64.0878 21.2056C67.2473 21.2056 69.8087 18.6424 69.8087 15.4806C69.8087 12.3188 67.2473 9.75568 64.0878 9.75568C60.9283 9.75568 58.3669 12.3188 58.3669 15.4806C58.3669 18.6424 60.9283 21.2056 64.0878 21.2056Z" fill="white"/>
<path d="M88.2304 21.2056C91.3899 21.2056 93.9513 18.6424 93.9513 15.4806C93.9513 12.3188 91.3899 9.75568 88.2304 9.75568C85.0708 9.75568 82.5095 12.3188 82.5095 15.4806C82.5095 18.6424 85.0708 21.2056 88.2304 21.2056Z" fill="white"/>
<path d="M64.5092 38.0193C67.6688 38.0193 70.2301 35.4561 70.2301 32.2943C70.2301 29.1325 67.6688 26.5694 64.5092 26.5694C61.3497 26.5694 58.7883 29.1325 58.7883 32.2943C58.7883 35.4561 61.3497 38.0193 64.5092 38.0193Z" fill="white"/>
<path d="M88.2304 38.2819C91.3899 38.2819 93.9513 35.7188 93.9513 32.557C93.9513 29.3952 91.3899 26.832 88.2304 26.832C85.0708 26.832 82.5095 29.3952 82.5095 32.557C82.5095 35.7188 85.0708 38.2819 88.2304 38.2819Z" fill="white"/>
<path d="M130.255 15.0132C130.27 13.7605 129.944 12.5273 129.314 11.4449C129.243 11.3237 129.17 11.2076 129.094 11.0939C129.17 10.9778 129.243 10.8616 129.314 10.7404C129.931 9.65198 130.255 8.42209 130.255 7.1708C130.255 5.91952 129.931 4.68963 129.314 3.60124C128.701 2.54472 127.823 1.66646 126.768 1.05317C125.681 0.435807 124.452 0.111267 123.202 0.111267C121.952 0.111267 120.723 0.435807 119.636 1.05317C118.58 1.66639 117.701 2.54462 117.087 3.60124C116.472 4.6901 116.148 5.91981 116.148 7.1708C116.148 8.42179 116.472 9.6515 117.087 10.7404C117.158 10.8616 117.234 10.9778 117.309 11.0939C117.234 11.2076 117.158 11.3237 117.087 11.4449C116.459 12.528 116.135 13.7609 116.149 15.0132C116.15 15.2916 116.165 15.5698 116.194 15.8466C115.642 15.7826 115.085 15.7826 114.534 15.8466C114.565 15.5699 114.581 15.2917 114.582 15.0132C114.595 13.7607 114.269 12.5278 113.64 11.4449C113.57 11.3237 113.494 11.2076 113.418 11.0939C113.494 10.9778 113.57 10.8616 113.64 10.7404C114.257 9.65198 114.581 8.42209 114.581 7.1708C114.581 5.91952 114.257 4.68963 113.64 3.60124C113.026 2.54462 112.148 1.66639 111.091 1.05317C110.004 0.435807 108.776 0.111267 107.526 0.111267C106.276 0.111267 105.047 0.435807 103.96 1.05317C102.904 1.66646 102.027 2.54472 101.414 3.60124C100.797 4.68963 100.472 5.91952 100.472 7.1708C100.472 8.42209 100.797 9.65198 101.414 10.7404C101.484 10.8616 101.558 10.9778 101.636 11.0939C101.558 11.2076 101.484 11.3237 101.414 11.4449C100.797 12.5333 100.472 13.7632 100.472 15.0145C100.472 16.2658 100.797 17.4957 101.414 18.5841C102.027 19.6406 102.904 20.5189 103.96 21.1321C105.042 21.7622 106.274 22.0877 107.526 22.0741C107.804 22.0735 108.082 22.0575 108.358 22.0261C108.327 22.302 108.311 22.5793 108.311 22.857C108.295 24.1098 108.621 25.3431 109.252 26.4253C110.21 28.0342 111.76 29.2027 113.57 29.6797C115.38 30.1566 117.304 29.9039 118.93 28.9758C119.023 28.9203 119.109 28.8647 119.197 28.8067V35.1806H108.199V31.6451H97.8176V45.5623H129.581V31.7133C129.583 30.2646 129.199 28.8415 128.471 27.5894C128.791 27.2308 129.074 26.8408 129.316 26.4253C129.933 25.3373 130.258 24.1078 130.258 22.857C130.258 21.6061 129.933 20.3766 129.316 19.2886C129.246 19.1674 129.173 19.0513 129.097 18.9351C129.173 18.8215 129.246 18.7028 129.316 18.5841C129.946 17.5007 130.271 16.2666 130.255 15.0132Z" fill="black"/>
<path d="M123.025 25.1349H120.85V36.8222H109.85V33.2867H99.4678V47.2039H131.232V33.3474C131.232 31.1693 130.367 29.0804 128.828 27.5403C127.289 26.0002 125.202 25.1349 123.025 25.1349Z" fill="white" stroke="#221F20" stroke-width="1.23144" stroke-miterlimit="10"/>
<path d="M131.908 16.6473C131.92 15.3964 131.595 14.1654 130.967 13.084C130.896 12.9628 130.82 12.8467 130.745 12.7305C130.82 12.6169 130.896 12.4982 130.967 12.3769C131.584 11.289 131.908 10.0595 131.908 8.80864C131.908 7.55775 131.584 6.32826 130.967 5.24034C130.354 4.18314 129.475 3.30474 128.418 2.69227C127.331 2.07491 126.102 1.75037 124.852 1.75037C123.602 1.75037 122.374 2.07491 121.286 2.69227C120.23 3.3049 119.352 4.18332 118.74 5.24034C118.123 6.32826 117.799 7.55775 117.799 8.80864C117.799 10.0595 118.123 11.289 118.74 12.3769C118.811 12.4982 118.884 12.6169 118.962 12.7305C118.884 12.8467 118.811 12.9628 118.74 13.084C118.11 14.1664 117.784 15.3996 117.799 16.6523C117.799 16.93 117.815 17.2073 117.847 17.4832C117.294 17.4226 116.736 17.4226 116.184 17.4832C116.215 17.2073 116.231 16.93 116.232 16.6523C116.246 15.3996 115.921 14.1664 115.29 13.084C115.22 12.9628 115.147 12.8467 115.071 12.7305C115.147 12.6169 115.22 12.4982 115.29 12.3769C115.907 11.289 116.232 10.0595 116.232 8.80864C116.232 7.55775 115.907 6.32826 115.29 5.24034C114.678 4.18332 113.8 3.3049 112.744 2.69227C111.657 2.07491 110.428 1.75037 109.178 1.75037C107.928 1.75037 106.7 2.07491 105.613 2.69227C104.542 3.31111 103.655 4.20356 103.042 5.27827C102.429 6.35298 102.113 7.57134 102.125 8.80864C102.11 10.0611 102.435 11.2941 103.064 12.3769C103.135 12.4982 103.21 12.6169 103.286 12.7305C103.21 12.8467 103.135 12.9628 103.064 13.084C102.431 14.1578 102.093 15.3805 102.087 16.6273C102.08 17.8742 102.404 19.1004 103.026 20.1809C103.648 21.2615 104.545 22.1575 105.626 22.7776C106.707 23.3978 107.933 23.7197 109.178 23.7107C109.456 23.7097 109.733 23.6945 110.009 23.6652C109.977 23.9411 109.961 24.2184 109.961 24.4961C109.967 25.737 110.299 26.9545 110.923 28.0271C111.546 29.0997 112.44 29.9899 113.515 30.6089C114.59 31.2278 115.808 31.5538 117.048 31.5545C118.288 31.5551 119.507 31.2303 120.582 30.6124C120.701 30.5417 120.82 30.4685 120.933 30.3927C121.049 30.4685 121.165 30.5417 121.286 30.6124C122.374 31.2298 123.602 31.5543 124.852 31.5543C126.102 31.5543 127.331 31.2298 128.418 30.6124C130.031 29.6552 131.203 28.1008 131.68 26.2856C132.157 24.4704 131.901 22.5402 130.967 20.9126C130.896 20.7914 130.82 20.6752 130.745 20.559C130.82 20.4429 130.896 20.3267 130.967 20.2055C131.595 19.1258 131.92 17.8965 131.908 16.6473Z" fill="white" stroke="#221F20" stroke-width="1.23144" stroke-miterlimit="10"/>
<path d="M109.855 38.8197V33.0594" stroke="#221F20" stroke-width="1.23144" stroke-miterlimit="10"/>
<path d="M125.602 34.3071C127.487 34.3071 129.016 32.7773 129.016 30.8903C129.016 29.0033 127.487 27.4735 125.602 27.4735C123.716 27.4735 122.187 29.0033 122.187 30.8903C122.187 32.7773 123.716 34.3071 125.602 34.3071Z" fill="white"/>
<path d="M173.254 1.77809C171.81 1.77647 170.401 2.21712 169.216 3.04076C169.044 2.91954 168.868 2.80085 168.684 2.69478C167.589 2.07251 166.351 1.74536 165.093 1.74536C163.834 1.74536 162.596 2.07251 161.502 2.69478C161.378 2.76549 161.249 2.84125 161.146 2.91701C161.03 2.84125 160.911 2.76549 160.79 2.69478C159.695 2.07253 158.457 1.7454 157.198 1.7454C155.938 1.7454 154.7 2.07253 153.605 2.69478C153.484 2.76549 153.353 2.84125 153.25 2.91701C153.136 2.84125 153.017 2.76549 152.896 2.69478C151.801 2.07253 150.563 1.7454 149.304 1.7454C148.045 1.7454 146.807 2.07253 145.712 2.69478C144.633 3.3184 143.74 4.21755 143.122 5.30022C142.505 6.38289 142.187 7.61021 142.199 8.85661C142.184 10.118 142.511 11.3598 143.145 12.4502C143.762 13.5157 144.647 14.4011 145.712 15.0184C146.807 15.6393 148.045 15.9656 149.304 15.9656C150.563 15.9656 151.801 15.6393 152.896 15.0184C153.017 14.9477 153.149 14.872 153.25 14.7962C153.366 14.872 153.484 14.9477 153.605 15.0184C154.701 15.6393 155.939 15.9656 157.198 15.9656C158.457 15.9656 159.694 15.6393 160.79 15.0184C160.911 14.9477 161.042 14.872 161.146 14.7962C161.262 14.872 161.378 14.9477 161.502 15.0184C162.597 15.6393 163.834 15.9656 165.093 15.9656C166.351 15.9656 167.588 15.6393 168.684 15.0184C168.848 14.9225 169.004 14.8189 169.158 14.7129C170.071 15.3553 171.123 15.7732 172.228 15.9329C173.333 16.0925 174.46 15.9894 175.517 15.6317C176.575 15.2741 177.533 14.6721 178.315 13.8745C179.096 13.0769 179.679 12.1062 180.016 11.0411C180.353 9.97597 180.434 8.84645 180.253 7.74412C180.072 6.64179 179.634 5.59767 178.974 4.69643C178.314 3.7952 177.452 3.06222 176.456 2.55693C175.46 2.05165 174.36 1.78828 173.244 1.78819L173.254 1.77809Z" fill="white" stroke="#221F20" stroke-width="1.23144" stroke-miterlimit="10"/>
<path d="M166.771 33.1024C165.328 33.1008 163.919 33.5414 162.733 34.3651C162.561 34.2438 162.387 34.1125 162.203 34.0166C161.108 33.3957 159.87 33.0694 158.611 33.0694C157.352 33.0694 156.114 33.3957 155.019 34.0166C154.898 34.0898 154.779 34.163 154.663 34.2413C154.547 34.163 154.431 34.0898 154.307 34.0166C153.212 33.3957 151.975 33.0694 150.716 33.0694C149.457 33.0694 148.22 33.3957 147.125 34.0166C147.001 34.0898 146.885 34.163 146.769 34.2413C146.653 34.163 146.534 34.0898 146.413 34.0166C145.318 33.3957 144.08 33.0694 142.821 33.0694C141.562 33.0694 140.324 33.3957 139.229 34.0166C138.172 34.6326 137.292 35.5122 136.675 36.5697C136.053 37.6656 135.726 38.9042 135.726 40.1645C135.726 41.4247 136.053 42.6634 136.675 43.7593C137.292 44.8241 138.176 45.7094 139.239 46.3276C140.335 46.9484 141.572 47.2747 142.831 47.2747C144.09 47.2747 145.328 46.9484 146.423 46.3276C146.545 46.2543 146.663 46.1811 146.779 46.1028C146.895 46.1811 147.011 46.2543 147.135 46.3276C148.23 46.9484 149.467 47.2747 150.726 47.2747C151.985 47.2747 153.222 46.9484 154.317 46.3276C154.441 46.2543 154.557 46.1811 154.673 46.1028C154.789 46.1811 154.908 46.2543 155.029 46.3276C156.124 46.9484 157.362 47.2747 158.621 47.2747C159.88 47.2747 161.118 46.9484 162.213 46.3276C162.377 46.2316 162.534 46.1281 162.685 46.022C163.599 46.6637 164.65 47.0809 165.755 47.24C166.859 47.3991 167.986 47.2954 169.043 46.9376C170.1 46.5797 171.058 45.9776 171.839 45.1801C172.621 44.3826 173.203 43.4121 173.54 42.3473C173.876 41.2825 173.957 40.1533 173.776 39.0513C173.596 37.9493 173.158 36.9054 172.498 36.0043C171.839 35.1032 170.977 34.3702 169.982 33.8647C168.987 33.3592 167.887 33.0955 166.771 33.0948V33.1024Z" fill="white" stroke="#221F20" stroke-width="1.23144" stroke-miterlimit="10"/>
<path d="M139.478 23.943C137.938 23.0699 136.768 21.6657 136.187 19.9925C135.606 18.3193 135.654 16.4916 136.321 14.851C136.988 13.2103 138.23 11.8689 139.813 11.0772C141.397 10.2856 143.214 10.098 144.926 10.5494C146.637 11.0007 148.126 12.0603 149.114 13.53C150.102 14.9998 150.522 16.7792 150.294 18.5359C150.067 20.2925 149.208 21.9063 147.879 23.0756C146.549 24.245 144.839 24.8899 143.069 24.89C141.809 24.9021 140.569 24.575 139.478 23.943Z" fill="white" stroke="#221F20" stroke-width="1.23144" stroke-miterlimit="10"/>
<path d="M171.992 38.3753C171.048 37.8266 170.242 37.0682 169.637 36.1586C169.033 35.249 168.645 34.2126 168.503 33.1292C168.362 32.0459 168.472 30.9445 168.823 29.9102C169.174 28.8758 169.759 27.936 170.53 27.1632C171.302 26.3905 172.241 25.8055 173.274 25.4533C174.308 25.1011 175.408 24.9911 176.491 25.1318C177.574 25.2726 178.61 25.6603 179.519 26.2651C180.428 26.8699 181.186 27.6755 181.735 28.62C182.358 29.7162 182.685 30.9553 182.685 32.216C182.685 33.4768 182.358 34.7159 181.735 35.8121C181.111 36.8903 180.212 37.7837 179.13 38.4011C178.049 39.0186 176.823 39.3382 175.578 39.3274C174.319 39.3394 173.08 39.0105 171.992 38.3753Z" fill="white" stroke="#221F20" stroke-width="1.23144" stroke-miterlimit="10"/>
<path d="M176.211 18.7458H143.463V29.3547H176.211V18.7458Z" fill="white" stroke="#221F20" stroke-width="1.23144" stroke-miterlimit="10"/>
<path d="M145.568 23.458C147.487 23.458 149.043 21.9011 149.043 19.9806C149.043 18.0601 147.487 16.5032 145.568 16.5032C143.649 16.5032 142.093 18.0601 142.093 19.9806C142.093 21.9011 143.649 23.458 145.568 23.458Z" fill="white"/>
<path d="M174.629 33.8499C176.784 33.8499 178.53 32.1019 178.53 29.9457C178.53 27.7895 176.784 26.0415 174.629 26.0415C172.474 26.0415 170.728 27.7895 170.728 29.9457C170.728 32.1019 172.474 33.8499 174.629 33.8499Z" fill="white"/>
<path d="M147.488 15.7331C149.561 15.7331 151.241 14.0519 151.241 11.978C151.241 9.90403 149.561 8.22278 147.488 8.22278C145.416 8.22278 143.736 9.90403 143.736 11.978C143.736 14.0519 145.416 15.7331 147.488 15.7331Z" fill="white"/>
<path d="M170.175 40.8956C172.197 40.8956 173.836 39.255 173.836 37.2313C173.836 35.2076 172.197 33.567 170.175 33.567C168.153 33.567 166.513 35.2076 166.513 37.2313C166.513 39.255 168.153 40.8956 170.175 40.8956Z" fill="white"/>
<path d="M52.3459 37.201C51.3931 35.6038 49.8521 34.4444 48.0542 33.9722C46.2563 33.5 44.345 33.7526 42.7312 34.6757C42.2963 34.931 41.8894 35.2315 41.5174 35.5722C40.4098 34.5743 39.0174 33.9491 37.5362 33.7847C36.055 33.6202 34.5595 33.9248 33.2603 34.6555C32.1832 34.0525 30.969 33.7376 29.7348 33.7412C28.5007 33.7447 27.2883 34.0666 26.2146 34.6757C25.7801 34.9304 25.374 35.231 25.0033 35.5722C24.6313 35.2315 24.2244 34.931 23.7895 34.6757C22.7094 34.0632 21.4891 33.7413 20.2477 33.7413C19.0063 33.7413 17.786 34.0632 16.7059 34.6757L16.5242 34.7918C16.3551 34.6731 16.1835 34.557 16.0044 34.4534C14.9244 33.8393 13.7035 33.5165 12.4613 33.5165C11.2192 33.5165 9.99828 33.8393 8.91827 34.4534C7.85478 35.0684 6.97359 35.955 6.36482 37.0225C5.75604 38.0901 5.44153 39.3003 5.45345 40.5294C5.46005 41.7621 5.7895 42.9716 6.40894 44.0371C7.02839 45.1027 7.91618 45.9871 8.98377 46.6021C10.0514 47.2172 11.2614 47.5414 12.4933 47.5424C13.7252 47.5434 14.9358 47.2212 16.0044 46.6079C16.0675 46.5725 16.1255 46.5321 16.1861 46.4943C16.3526 46.6129 16.5242 46.7266 16.7059 46.8326C17.786 47.4451 19.0063 47.767 20.2477 47.767C21.4891 47.767 22.7094 47.4451 23.7895 46.8326C24.2244 46.5773 24.6313 46.2768 25.0033 45.9361C25.374 46.2773 25.7801 46.5779 26.2146 46.8326C27.2883 47.4417 28.5007 47.7636 29.7348 47.7671C30.969 47.7707 32.1832 47.4558 33.2603 46.8528C34.3375 47.4558 35.5517 47.7707 36.7858 47.7671C38.02 47.7636 39.2324 47.4417 40.3061 46.8326C40.7406 46.5779 41.1467 46.2773 41.5174 45.9361C41.8894 46.2768 42.2963 46.5773 42.7312 46.8326C44.0736 47.602 45.6317 47.9079 47.1651 47.703C48.6984 47.4982 50.1218 46.7941 51.2155 45.6993C52.3093 44.6045 53.0125 43.1799 53.2168 41.6454C53.4211 40.1109 53.115 38.5517 52.3459 37.2086V37.201Z" fill="white" stroke="#221F20" stroke-width="1.23144" stroke-miterlimit="10"/>
<path d="M18.6062 37.0192C18.4951 36.8324 18.3765 36.6531 18.2529 36.4788C18.3286 36.3626 18.4043 36.2465 18.4749 36.1253C19.0869 35.0439 19.4086 33.8224 19.4086 32.5797C19.4086 31.337 19.0869 30.1154 18.4749 29.0341C18.4043 28.9154 18.3286 28.7992 18.2529 28.6856C18.3286 28.5694 18.4043 28.4533 18.4749 28.3346C19.0869 27.2532 19.4086 26.0317 19.4086 24.789C19.4086 23.5463 19.0869 22.3248 18.4749 21.2434C18.4043 21.1222 18.3286 21.006 18.2529 20.8924C18.3286 20.7788 18.4043 20.6626 18.4749 20.5414C19.0869 19.46 19.4086 18.2385 19.4086 16.9958C19.4086 15.7531 19.0869 14.5316 18.4749 13.4502C18.3816 13.2911 18.2806 13.1371 18.1771 12.9881C18.2806 12.8391 18.3816 12.6851 18.4749 12.526C19.0869 11.4446 19.4086 10.2231 19.4086 8.98038C19.4086 7.73766 19.0869 6.51614 18.4749 5.4348C17.8661 4.38884 16.9966 3.51874 15.9514 2.90946C14.8708 2.29705 13.6502 1.97516 12.4083 1.97516C11.1665 1.97516 9.94585 2.29705 8.86528 2.90946C7.80194 3.52523 6.92094 4.41236 6.31222 5.48026C5.7035 6.54816 5.38888 7.75859 5.40046 8.98795C5.38862 10.229 5.71117 11.4503 6.33417 12.5234C6.42754 12.6825 6.52848 12.8366 6.63195 12.9856C6.52848 13.1346 6.42754 13.2886 6.33417 13.4477C5.72219 14.529 5.40053 15.7506 5.40053 16.9933C5.40053 18.236 5.72219 19.4575 6.33417 20.5389C6.40483 20.6601 6.48054 20.7762 6.55624 20.8899C6.48054 21.0035 6.40483 21.1197 6.33417 21.2409C5.72219 22.3222 5.40053 23.5438 5.40053 24.7865C5.40053 26.0292 5.72219 27.2507 6.33417 28.3321C6.40483 28.4508 6.48054 28.5669 6.55624 28.6831C6.48054 28.7967 6.40483 28.9129 6.33417 29.0316C5.72219 30.1129 5.40053 31.3344 5.40053 32.5772C5.40053 33.8199 5.72219 35.0414 6.33417 36.1227C6.44521 36.3121 6.56381 36.4889 6.68746 36.6632C6.61176 36.7793 6.53858 36.8955 6.46792 37.0167C5.69875 38.3599 5.39269 39.919 5.59697 41.4535C5.80126 42.988 6.50454 44.4126 7.59826 45.5074C8.69199 46.6022 10.1154 47.3063 11.6487 47.5112C13.1821 47.716 14.7402 47.4101 16.0826 46.6408C17.1284 46.0322 17.998 45.162 18.6062 44.1154C19.2181 43.0341 19.5398 41.8126 19.5398 40.5699C19.5398 39.3271 19.2181 38.1056 18.6062 37.0243V37.0192Z" fill="white" stroke="#221F20" stroke-width="1.23144" stroke-miterlimit="10"/>
<path d="M51.2178 19.7585H2.0542V29.7866H51.2178V19.7585Z" fill="white" stroke="#221F20" stroke-width="1.23144" stroke-miterlimit="10"/>
<path d="M22.5452 45.3402V35.9283H11.5299V45.3402H22.5452Z" fill="white"/>
<path d="M52.3459 5.67476C51.7385 4.62765 50.8687 3.75721 49.8223 3.14941C48.7422 2.53698 47.522 2.21507 46.2805 2.21507C45.0391 2.21507 43.8188 2.53698 42.7387 3.14941C42.3038 3.40479 41.897 3.70528 41.5249 4.04591C41.1542 3.70473 40.7482 3.40419 40.3136 3.14941C39.24 2.54031 38.0276 2.21845 36.7934 2.21492C35.5592 2.21138 34.345 2.52627 33.2679 3.12921C32.1908 2.52627 30.9766 2.21138 29.7424 2.21492C28.5082 2.21845 27.2958 2.54031 26.2222 3.14941C25.7876 3.40419 25.3816 3.70473 25.0109 4.04591C24.6388 3.70528 24.232 3.40479 23.797 3.14941C22.7169 2.53698 21.4967 2.21507 20.2553 2.21507C19.0138 2.21507 17.7936 2.53698 16.7135 3.14941C16.6504 3.18477 16.5923 3.22517 16.5318 3.26305C16.3627 3.14436 16.1911 3.03072 16.0119 2.92466C14.9314 2.31224 13.7107 1.99036 12.4689 1.99036C11.227 1.99036 10.0064 2.31224 8.92583 2.92466C7.86249 3.54043 6.98148 4.42756 6.37277 5.49546C5.76405 6.56336 5.44942 7.77378 5.461 9.00315C5.4676 10.2359 5.79705 11.4453 6.4165 12.5109C7.03595 13.5764 7.92373 14.4608 8.99133 15.0759C10.0589 15.6909 11.269 16.0151 12.5009 16.0162C13.7327 16.0172 14.9433 15.6949 16.0119 15.0816L16.1936 14.968C16.3602 15.0842 16.5318 15.2003 16.7135 15.3039C17.793 15.918 19.0135 16.2409 20.2553 16.2409C21.497 16.2409 22.7175 15.918 23.797 15.3039C24.2325 15.0502 24.6394 14.7505 25.0109 14.4099C26.1184 15.4078 27.5108 16.033 28.992 16.1974C30.4732 16.3619 31.9687 16.0573 33.2679 15.3266C34.345 15.9295 35.5592 16.2444 36.7934 16.2409C38.0276 16.2374 39.24 15.9155 40.3136 15.3064C40.7482 15.0516 41.1542 14.7511 41.5249 14.4099C41.8964 14.7505 42.3033 15.0502 42.7387 15.3039C43.8049 15.934 45.0192 16.2695 46.2575 16.2761C47.4957 16.2827 48.7135 15.9601 49.7863 15.3414C50.8592 14.7227 51.7486 13.8299 52.3637 12.7545C52.9787 11.679 53.2974 10.4594 53.2871 9.22033C53.2994 7.97506 52.9741 6.74975 52.3459 5.67476Z" fill="white" stroke="#221F20" stroke-width="1.23144" stroke-miterlimit="10"/>
<path d="M17.0363 9.98285H7.6311V41.7339H17.0363V9.98285Z" fill="white"/>
<path d="M228.775 34.8037C227.758 34.2305 226.61 33.9294 225.442 33.9294C224.274 33.9294 223.126 34.2305 222.109 34.8037C221.817 34.9749 221.538 35.1681 221.275 35.3816C221.011 35.1693 220.732 34.9761 220.441 34.8037C219.423 34.2305 218.275 33.9294 217.108 33.9294C215.94 33.9294 214.792 34.2305 213.774 34.8037C213.483 34.9761 213.204 35.1693 212.94 35.3816C212.678 35.1687 212.4 34.9755 212.109 34.8037C212.014 34.7489 211.917 34.699 211.823 34.6492L230.346 17.9785L223.107 9.9247C223.537 8.95549 223.735 7.89904 223.684 6.83975C223.634 5.78046 223.336 4.74768 222.816 3.82392C221.917 2.32478 220.468 1.23687 218.779 0.792767C217.089 0.348665 215.293 0.583607 213.774 1.44737C213.483 1.61983 213.204 1.81297 212.94 2.02532C212.678 1.81242 212.4 1.61924 212.109 1.44737C211.108 0.871356 209.973 0.568951 208.818 0.570502C207.663 0.572052 206.529 0.877507 205.53 1.45621C204.53 2.03492 203.7 2.86652 203.123 3.86757C202.546 4.86863 202.243 6.00393 202.243 7.15955C202.243 8.31517 202.546 9.45046 203.123 10.4515C203.7 11.4526 204.53 12.2842 205.53 12.8629C206.529 13.4416 207.663 13.747 208.818 13.7486C209.973 13.7501 211.108 13.4477 212.109 12.8717C212.401 12.7016 212.679 12.5083 212.94 12.2938C214.116 13.2533 215.591 13.7683 217.108 13.7486C217.468 13.7484 217.827 13.7201 218.183 13.6639L200.369 29.6968L205.131 34.998C203.726 35.9603 202.746 37.4281 202.395 39.0957C202.044 40.7632 202.35 42.5019 203.248 43.9495C204.147 45.3971 205.569 46.4419 207.218 46.8664C208.867 47.2908 210.617 47.0622 212.101 46.228C212.395 46.0621 212.675 45.873 212.938 45.6625C214.116 46.6206 215.587 47.1436 217.105 47.1436C218.623 47.1436 220.094 46.6206 221.272 45.6625C221.534 45.8776 221.813 46.0709 222.106 46.2405C223.62 47.1251 225.423 47.3717 227.119 46.926C228.814 46.4804 230.264 45.3789 231.148 43.8639C232.032 42.349 232.278 40.5446 231.833 38.8478C231.387 37.151 230.287 35.7008 228.773 34.8161L228.775 34.8037Z" fill="#221F20"/>
<path d="M256.733 34.8434C257.096 34.002 257.279 33.0942 257.271 32.1779C257.285 31.0076 256.983 29.8552 256.397 28.8423C256.226 28.5499 256.033 28.2709 255.82 28.0078C256.032 27.7437 256.225 27.4649 256.397 27.1732C256.97 26.1549 257.271 25.0061 257.271 23.8376C257.271 22.6691 256.97 21.5203 256.397 20.502C256.225 20.2103 256.032 19.9314 255.82 19.6674C256.032 19.4047 256.225 19.1266 256.397 18.8354C256.97 17.8171 257.271 16.6683 257.271 15.4998C257.271 14.3313 256.97 13.1824 256.397 12.1641C256.226 11.8717 256.033 11.5928 255.82 11.3296C256.032 11.0656 256.225 10.7867 256.397 10.4951C256.917 9.61833 257.228 8.63312 257.304 7.61642C257.381 6.59971 257.222 5.57904 256.839 4.63414C256.456 3.68924 255.86 2.8457 255.098 2.1694C254.335 1.4931 253.427 1.00237 252.444 0.735528C251.46 0.468689 250.428 0.432971 249.429 0.631167C248.43 0.829363 247.49 1.25611 246.682 1.87806C245.875 2.50001 245.222 3.30033 244.775 4.2165C244.328 5.13267 244.098 6.13988 244.105 7.15945C244.102 7.85913 244.207 8.55501 244.418 9.22211C243.75 9.01334 243.054 8.90832 242.355 8.91072C241.479 8.89369 240.609 9.05149 239.796 9.37491C238.982 9.69833 238.241 10.1809 237.616 10.7943C236.991 11.4077 236.495 12.1397 236.156 12.9474C235.817 13.7552 235.642 14.6225 235.642 15.4985C235.642 16.3746 235.817 17.2419 236.156 18.0496C236.495 18.8573 236.991 19.5893 237.616 20.2028C238.241 20.8162 238.982 21.2987 239.796 21.6221C240.609 21.9456 241.479 22.1034 242.355 22.0863C243.055 22.09 243.751 21.9849 244.418 21.7749C244.207 22.442 244.102 23.1379 244.105 23.8376C244.082 25.3541 244.593 26.8302 245.549 28.0078C245.334 28.2697 245.14 28.5488 244.971 28.8423C244.383 29.8545 244.08 31.0072 244.095 32.1779C244.088 33.0943 244.272 34.0022 244.635 34.8434H235.628V46.1905H265.75V34.8434H256.733Z" fill="#221F20"/>
<path d="M230.774 35.6605C229.757 35.0858 228.609 34.7837 227.441 34.7837C226.273 34.7837 225.125 35.0858 224.108 35.6605C223.816 35.8313 223.537 36.0236 223.274 36.236C223.012 36.0231 222.734 35.8307 222.442 35.6605C221.425 35.0858 220.277 34.7837 219.109 34.7837C217.941 34.7837 216.793 35.0858 215.776 35.6605C215.483 35.8301 215.204 36.0225 214.942 36.236C214.679 36.0236 214.4 35.8313 214.108 35.6605C214.013 35.6057 213.919 35.5559 213.822 35.5061L232.355 18.8354L225.108 10.7866C225.5 9.91865 225.699 8.9761 225.691 8.02391C225.684 6.86595 225.373 5.73011 224.791 4.72956C224.208 3.72901 223.374 2.89868 222.371 2.32132C221.368 1.74396 220.231 1.43971 219.074 1.43891C217.917 1.4381 216.78 1.74075 215.776 2.31672C215.483 2.48625 215.204 2.67867 214.942 2.89217C214.679 2.67981 214.4 2.48745 214.108 2.31672C213.107 1.74176 211.973 1.44022 210.819 1.44234C209.665 1.44446 208.532 1.75016 207.533 2.32879C206.534 2.90742 205.705 3.73865 205.129 4.7391C204.553 5.73955 204.249 6.87407 204.249 8.02888C204.249 9.1837 204.553 10.3182 205.129 11.3187C205.705 12.3191 206.534 13.1503 207.533 13.729C208.532 14.3076 209.665 14.6133 210.819 14.6154C211.973 14.6176 213.107 14.316 214.108 13.7411C214.399 13.5686 214.678 13.3755 214.942 13.1631C215.205 13.3766 215.484 13.5698 215.776 13.7411C216.788 14.3278 217.94 14.6299 219.109 14.6154C219.469 14.6148 219.829 14.5874 220.184 14.5332L202.368 30.5637L207.133 35.8648C205.72 36.8241 204.733 38.293 204.378 39.9641C204.023 41.6352 204.328 43.3788 205.228 44.8302C206.129 46.2815 207.556 47.328 209.21 47.7506C210.864 48.1732 212.617 47.9391 214.103 47.0973C214.394 46.9249 214.673 46.7317 214.937 46.5194C215.2 46.7329 215.479 46.9261 215.771 47.0973C216.788 47.6705 217.936 47.9715 219.104 47.9715C220.272 47.9715 221.42 47.6705 222.437 47.0973C222.728 46.9255 223.006 46.7323 223.269 46.5194C223.533 46.7317 223.811 46.9249 224.103 47.0973C225.617 47.982 227.42 48.2286 229.115 47.7829C230.811 47.3372 232.26 46.2358 233.144 44.7208C234.028 43.2058 234.275 41.4015 233.829 39.7047C233.384 38.0079 232.283 36.5577 230.769 35.673L230.774 35.6605Z" fill="white" stroke="#010101" stroke-width="1.16804" stroke-miterlimit="10"/>
<path d="M258.991 35.9469C259.353 35.1053 259.536 34.1976 259.529 33.2814C259.543 32.1107 259.24 30.958 258.652 29.9458C258.482 29.6537 258.29 29.3747 258.077 29.1113C258.29 28.8491 258.482 28.571 258.652 28.2792C259.328 27.1173 259.635 25.7772 259.532 24.4368C259.43 23.0963 258.922 21.8187 258.077 20.7734C258.29 20.51 258.482 20.2311 258.652 19.9389C259.227 18.9212 259.529 17.7721 259.529 16.6033C259.529 15.4344 259.227 14.2854 258.652 13.2677C258.482 12.9755 258.29 12.6966 258.077 12.4331C258.29 12.171 258.482 11.8928 258.652 11.6011C259.173 10.7244 259.485 9.73901 259.562 8.72197C259.639 7.70494 259.48 6.6838 259.098 5.7384C258.715 4.793 258.119 3.94895 257.357 3.27223C256.594 2.59552 255.685 2.10447 254.702 1.83748C253.718 1.5705 252.686 1.5348 251.686 1.73319C250.686 1.93158 249.746 2.35867 248.938 2.98109C248.131 3.6035 247.478 4.40437 247.031 5.32109C246.584 6.2378 246.356 7.24552 246.362 8.26547C246.359 8.96501 246.464 9.66089 246.674 10.3281C246.007 10.118 245.311 10.0129 244.612 10.0167C243.737 9.9997 242.867 10.1575 242.054 10.4809C241.24 10.8043 240.499 11.2869 239.874 11.9003C239.249 12.5137 238.752 13.2457 238.414 14.0535C238.075 14.8612 237.9 15.7285 237.9 16.6045C237.9 17.4806 238.075 18.3479 238.414 19.1556C238.752 19.9634 239.249 20.6954 239.874 21.3088C240.499 21.9222 241.24 22.4047 242.054 22.7281C242.867 23.0516 243.737 23.2094 244.612 23.1923C245.312 23.1954 246.007 23.0895 246.674 22.8785C246.464 23.5466 246.359 24.2433 246.362 24.9436C246.349 26.1139 246.65 27.2662 247.236 28.2792C247.408 28.5705 247.601 28.8486 247.814 29.1113C247.601 29.3753 247.409 29.6542 247.236 29.9458C246.65 30.9588 246.349 32.1112 246.362 33.2814C246.353 34.1971 246.534 35.1047 246.893 35.9469H237.879V47.2941H268V35.9469H258.991Z" fill="white" stroke="#010101" stroke-width="1.16804" stroke-miterlimit="10"/>
<path d="M195.622 6.43457C195.705 6.32447 195.782 6.20981 195.852 6.09113C196.16 5.54419 196.322 4.92709 196.322 4.2994C196.322 3.67171 196.16 3.05461 195.852 2.50767C195.547 1.97479 195.105 1.53288 194.573 1.22732C194.026 0.919352 193.409 0.757568 192.781 0.757568C192.153 0.757568 191.536 0.919352 190.989 1.22732C190.871 1.29632 190.758 1.37221 190.649 1.4546C190.54 1.37221 190.426 1.29632 190.308 1.22732C189.761 0.919352 189.144 0.757568 188.516 0.757568C187.889 0.757568 187.271 0.919352 186.724 1.22732C186.192 1.53288 185.75 1.97479 185.445 2.50767C185.137 3.05461 184.976 3.67171 184.976 4.2994C184.976 4.92709 185.137 5.54419 185.445 6.09113C185.749 6.62506 186.191 7.0673 186.724 7.37148C187.268 7.68679 187.888 7.84908 188.516 7.84119C188.789 7.84175 189.062 7.81211 189.329 7.7528C189.211 8.28933 189.211 8.84512 189.329 9.38165C189.062 9.32234 188.789 9.2927 188.516 9.29326C187.888 9.28648 187.269 9.4487 186.724 9.76297C186.192 10.0685 185.75 10.5104 185.445 11.0433C185.137 11.5903 184.976 12.2074 184.976 12.835C184.976 13.4627 185.137 14.0798 185.445 14.6268C185.749 15.1607 186.191 15.6029 186.724 15.9071C187.271 16.2151 187.889 16.3769 188.516 16.3769C189.144 16.3769 189.761 16.2151 190.308 15.9071C190.841 15.6029 191.283 15.1607 191.587 14.6268C191.901 14.0828 192.063 13.4644 192.057 12.8363C192.056 12.5619 192.026 12.2884 191.966 12.0206C192.234 12.0798 192.507 12.1094 192.781 12.109C193.409 12.1158 194.028 11.9536 194.573 11.6393C195.106 11.3351 195.548 10.8929 195.852 10.359C196.16 9.81201 196.322 9.19491 196.322 8.56722C196.322 7.93953 196.16 7.32244 195.852 6.7755C195.782 6.65763 195.705 6.54381 195.622 6.43457Z" fill="#221F20"/>
<path d="M197.233 7.31834C197.315 7.20906 197.391 7.09524 197.46 6.97742C197.768 6.43001 197.929 5.81251 197.929 5.18443C197.929 4.55634 197.768 3.93884 197.46 3.39143C197.154 2.85986 196.712 2.41895 196.18 2.11361C195.633 1.80564 195.016 1.64386 194.389 1.64386C193.761 1.64386 193.144 1.80564 192.597 2.11361C192.479 2.18261 192.365 2.2585 192.256 2.34089C192.147 2.2585 192.033 2.18261 191.916 2.11361C191.369 1.80564 190.751 1.64386 190.124 1.64386C189.496 1.64386 188.879 1.80564 188.332 2.11361C187.8 2.41895 187.359 2.85986 187.053 3.39143C186.745 3.93884 186.583 4.55634 186.583 5.18443C186.583 5.81251 186.745 6.43001 187.053 6.97742C187.358 7.51029 187.8 7.95221 188.332 8.25776C188.877 8.57203 189.495 8.73425 190.124 8.72748C190.398 8.7279 190.671 8.69826 190.939 8.63909C190.878 8.90578 190.847 9.17861 190.848 9.45225C190.848 9.72656 190.877 10.0001 190.936 10.2679C190.67 10.2086 190.397 10.179 190.124 10.1795C189.495 10.1728 188.877 10.335 188.332 10.6493C187.8 10.9548 187.358 11.3967 187.053 11.9296C186.745 12.4765 186.583 13.0936 186.583 13.7213C186.583 14.349 186.745 14.9661 187.053 15.5131C187.358 16.0459 187.8 16.4879 188.332 16.7934C188.879 17.1014 189.496 17.2632 190.124 17.2632C190.751 17.2632 191.369 17.1014 191.916 16.7934C192.448 16.4879 192.89 16.0459 193.195 15.5131C193.509 14.9683 193.671 14.349 193.664 13.7201C193.664 13.4465 193.633 13.1738 193.574 12.9069C193.841 12.9661 194.115 12.9957 194.389 12.9953C195.017 13.0021 195.636 12.8399 196.18 12.5256C196.713 12.22 197.154 11.7781 197.46 11.2452C197.768 10.6983 197.929 10.0812 197.929 9.45351C197.929 8.82582 197.768 8.20872 197.46 7.66178C197.39 7.54351 197.314 7.42888 197.233 7.31834Z" fill="white" stroke="#221F20" stroke-width="1.18408" stroke-miterlimit="10"/>
</svg>
