<svg width="32" height="32" viewBox="0 0 32 32" fill="none" xmlns="http://www.w3.org/2000/svg">
<path d="M22.3636 12.1818C22.3636 17.8051 17.8051 22.3636 12.1818 22.3636C6.55855 22.3636 2 17.8051 2 12.1818C2 6.55855 6.55855 2 12.1818 2C17.8051 2 22.3636 6.55855 22.3636 12.1818Z" fill="black"/>
<path d="M30 18.9699C30 24.5932 25.4414 29.1517 19.8182 29.1517C14.1949 29.1517 9.63637 24.5932 9.63637 18.9699C9.63637 13.3466 14.1949 8.78809 19.8182 8.78809C25.4414 8.78809 30 13.3466 30 18.9699Z" fill="white"/>
<path fill-rule="evenodd" clip-rule="evenodd" d="M19.8182 28.3032C24.9728 28.3032 29.1515 24.1246 29.1515 18.9699C29.1515 13.8152 24.9728 9.63657 19.8182 9.63657C14.6635 9.63657 10.4849 13.8152 10.4849 18.9699C10.4849 24.1246 14.6635 28.3032 19.8182 28.3032ZM19.8182 29.1517C25.4414 29.1517 30 24.5932 30 18.9699C30 13.3466 25.4414 8.78809 19.8182 8.78809C14.1949 8.78809 9.63637 13.3466 9.63637 18.9699C9.63637 24.5932 14.1949 29.1517 19.8182 29.1517Z" fill="black"/>
</svg>
