<svg height="352" viewBox="0 0 359 352" width="359" xmlns="http://www.w3.org/2000/svg"><path d="m174.194 4.112c95.929 0 173.694 77.765 173.694 173.694s-77.765 173.694-173.694 173.694-173.694-77.765-173.694-173.694 77.765-173.694 173.694-173.694z" fill="#f00"/><path d="m174.194 4.112c95.929 0 173.694 77.765 173.694 173.694s-77.765 173.694-173.694 173.694-173.694-77.765-173.694-173.694 77.765-173.694 173.694-173.694z" fill="#f00"/><path d="m174.194-170.08c95.928 0 173.693 77.765 173.693 173.693 0 95.929-77.765 173.694-173.693 173.694-95.929 0-173.694-77.765-173.694-173.694 0-95.928 77.765-173.693 173.694-173.693z" fill="#bd00ff"/><path d="m174.194-170.08c95.928 0 173.693 77.765 173.693 173.693 0 95.929-77.765 173.694-173.693 173.694-95.929 0-173.694-77.765-173.694-173.694 0-95.928 77.765-173.693 173.694-173.693z" fill="#bd00ff"/><g fill="#6c00ff"><path d="m185.306-315.245c95.929 0 173.694 77.765 173.694 173.694s-77.765 173.694-173.694 173.694-173.694-77.765-173.694-173.694 77.765-173.694 173.694-173.694z"/><path d="m185.306-315.245c95.929 0 173.694 77.765 173.694 173.694s-77.765 173.694-173.694 173.694-173.694-77.765-173.694-173.694 77.765-173.694 173.694-173.694z"/></g></svg>