<svg width="160" height="160" viewBox="0 0 160 160" fill="none" xmlns="http://www.w3.org/2000/svg">
<circle cx="67" cy="69" r="16.5" stroke="white"/>
<circle cx="81" cy="47" r="16.5" stroke="white"/>
<path d="M131.5 82C131.5 91.1269 124.323 98.5 115.5 98.5C106.677 98.5 99.5 91.1269 99.5 82C99.5 72.8731 106.677 65.5 115.5 65.5C124.323 65.5 131.5 72.8731 131.5 82Z" stroke="white"/>
<path d="M97.5 116.5C97.5 125.323 90.1269 132.5 81 132.5C71.8731 132.5 64.5 125.323 64.5 116.5C64.5 107.677 71.8731 100.5 81 100.5C90.1269 100.5 97.5 107.677 97.5 116.5Z" stroke="white"/>
<path d="M61.5 82C61.5 91.1269 54.3226 98.5 45.5 98.5C36.6774 98.5 29.5 91.1269 29.5 82C29.5 72.8731 36.6774 65.5 45.5 65.5C54.3226 65.5 61.5 72.8731 61.5 82Z" stroke="white"/>
<path d="M83.5 95.5C83.5 104.323 76.1269 111.5 67 111.5C57.8731 111.5 50.5 104.323 50.5 95.5C50.5 86.6774 57.8731 79.5 67 79.5C76.1269 79.5 83.5 86.6774 83.5 95.5Z" stroke="white"/>
<path d="M109.5 69C109.5 78.1269 102.323 85.5 93.5 85.5C84.6774 85.5 77.5 78.1269 77.5 69C77.5 59.8731 84.6774 52.5 93.5 52.5C102.323 52.5 109.5 59.8731 109.5 69Z" stroke="white"/>
<circle cx="93.5" cy="95.5" r="16" stroke="white"/>
</svg>
