<svg enable-background="new 0 0 512 512" viewBox="0 0 512 512" xmlns="http://www.w3.org/2000/svg" fill="white"><path d="m493.815 70.629c-11.001-1.003-20.73 7.102-21.733 18.102l-2.65 29.069c-44.959-70.606-123.003-117.8-213.432-117.8-97.281 0-183.012 55.522-225.57 138.854-5.024 9.837-1.122 21.884 8.715 26.908 9.839 5.024 21.884 1.123 26.908-8.715 36.017-70.524 108.344-117.047 189.947-117.047 74.377 0 141.499 38.731 179.953 99.408l-28.517-20.367c-8.989-6.419-21.48-4.337-27.899 4.651-6.419 8.989-4.337 21.479 4.651 27.899l86.475 61.761c12.674 9.035 30.155.764 31.541-14.459l9.711-106.53c1.004-11.001-7.1-20.731-18.1-21.734z"/><path d="m472.855 346.238c-9.838-5.023-21.884-1.122-26.908 8.715-36.017 70.524-108.344 117.047-189.947 117.047-74.377 0-141.499-38.731-179.953-99.408l28.517 20.367c8.989 6.419 21.479 4.337 27.899-4.651 6.419-8.989 4.337-21.479-4.651-27.899l-86.475-61.761c-12.519-8.944-30.141-.921-31.541 14.459l-9.711 106.53c-1.003 11 7.102 20.73 18.101 21.733 11.014 1.001 20.731-7.112 21.733-18.102l2.65-29.069c44.958 70.607 123.002 117.801 213.431 117.801 97.281 0 183.012-55.522 225.57-138.854 5.024-9.837 1.122-21.884-8.715-26.908z"/></svg>